<svg viewBox="0 0 24 24" xmlns="http://www.w3.org/2000/svg">
  <path
    d="M8.2 2.5A4.2 4.2 0 005 7.4c.2.9.7 1.8 1.3 2.4a.5.5 0 10.6-.7c-.4-.4-.8-1.2-1-1.9A3.2 3.2 0 1112.2 6c.2.7 0 1.5-.2 2.1a.5.5 0 10.9.4c.3-.8.4-1.8.2-2.7a4.2 4.2 0 00-4.9-3.3zM9 5.7c-.8.1-1.3.9-1.1 1.6l1.6 8.2L8 14c-1-1.2-1.7-1-2.2-.5-.6.6-.8 1-.1 2.1 1.5 2.4 3.7 5 5.8 6.7l6.2-1.2c1.8-2 2-10-1-9.7-.3 0-.7.1-.9.4-.1-1-1-1-1.3-1-.4.1-.7.4-.8.9-.2-1-1-1-1.4-1-.4.2-.9.5-1 1l-.9-4.8c-.2-.8-.9-1.3-1.6-1.1z"
    fill-rule="nonzero"/>
</svg>
